<?xml version="1.0" encoding="utf-8"?>
<!-- Generator: Adobe Illustrator 16.0.0, SVG Export Plug-In . SVG Version: 6.00 Build 0)  -->
<!DOCTYPE svg PUBLIC "-//W3C//DTD SVG 1.1//EN" "http://www.w3.org/Graphics/SVG/1.1/DTD/svg11.dtd">
<svg version="1.1" id="Calque_1" xmlns="http://www.w3.org/2000/svg" xmlns:xlink="http://www.w3.org/1999/xlink" x="0px" y="0px"
	 width="185px" height="227px" viewBox="0 0 185 227" enable-background="new 0 0 185 227" xml:space="preserve">
<g>
	<path fill-rule="evenodd" clip-rule="evenodd" fill="#003300" d="M114.447,11.8c0.298,11.661-4.373,22.269-7.289,33.564
		c6.906,2.181,12.592,6.417,18.604,10.065c1.31,0.794,2.626,1.085,4.133,1.167c18.8,1.015,37.138,20.287,37.542,38.947
		c0.146,6.772-3.771,10.488-8.564,13.857c-1.604,1.127-2.643,2.102-2.748,4.344c-0.852,18.042-8.058,33.178-21.312,45.43
		c-1.384,1.279-2.553,2.067-1.385,4.536c4.469,9.448,3.15,13.676-5.112,20.573c-1.724,1.439-1.933,4.321-4.354,5.813
		c3.393,3.683,7.09,7.354,2.181,12.222c-3.959,3.926-9.214,3.604-13.716-1.097c-1.708-1.784-3.146-2.188-5.543-1.626
		c-9.595,2.252-19.23,4.346-28.9,6.243c-2.875,0.564-4.957,1.442-5.761,4.486c-0.737,2.787-3.483,4.108-4.994,6.353
		c-2.401,0-4.802,0-7.203,0c-4.33-2.973-9.133-5.727-4.915-12.188c0.685-1.05-0.517-1.611-1.064-2.293
		c-4.976-6.184-2.896-13.266,4.714-16.061c1.119,0.007,2.242,0.013,3.364,0.02c7.458,5.998,15.586,7.499,24.737,4.251
		c3.294-1.171,6.952-1.318,10.444-1.93c1.812-0.318,3.667-0.484,5.425-0.99c1.578-0.453,3.65,0.141,5.142-2.158
		c-6.388-0.807-12.473-1.196-14.785-8.436c-0.417-1.305-3.82-1.944-4.715,0.651c-1.828,5.301-5.928,6.927-10.807,7.246
		c-5.031,0.33-10.089,0.254-15.135,0.355c-1.253-0.081-2.507-0.162-3.76-0.243c-11.663-0.955-15.889-8.991-10.538-20.577
		c1.124-2.435,0.737-3.553-1.109-5.241c-13.334-12.194-20.402-27.428-21.339-45.444c-0.113-2.188-0.996-3.256-2.649-4.406
		c-8.261-5.748-9.911-10.534-7.233-20.259c5.102-18.53,18.593-30.282,37.17-32.44c3.32-0.386,5.778-2.664,8.38-4.41
		c8.047-5.399,16.76-8.707,26.462-9.237c1.446-0.079,2.489-0.346,3.108-1.867c4.577-11.26,11.835-20.671,20.324-29.219
		C112.313,11.8,113.38,11.8,114.447,11.8z M110.647,15.825c-7.725,7.642-13.685,16.426-17.981,26.839
		c3.421,0.318,6.183,0.575,8.945,0.832c1.694,0.793,3.129,1.266,3.919-1.262c2.47-7.91,5.127-15.764,6.149-24.04
		c0.054-0.789,0.106-1.577,0.159-2.366C111.443,14.732,111.046,15.237,110.647,15.825z M128.769,169.899
		c1.173,3.619,1.271,7.304-0.059,11.45c6.521-3.721,6.251-14.123,0.229-19.915c-4.023-5.896-11.533-8.646-18.901-6.918
		c-7.596,1.78-12.91,7.461-13.979,14.943c-2.512,7.115,0.297,12.022,7.249,12.665c2.471,0.675,2.532-0.732,2.433-2.604
		c-0.195-3.706-0.411-7.459,2.172-10.738c0.859,4.367-1.169,8.935,0.78,12.84c7.768-2.711,9.498-8.309,7.003-15.959
		c3.506,2.711,2.921,5.995,3.152,8.84c0.374,4.603,4.634,3.437,6.681,5.616c3.317-3.68,0.973-7.517,0.862-11.611
		C127.496,169.155,128.133,169.527,128.769,169.899z M76.682,180.69c-0.616,0.913-0.365,1.605,0.706,1.623
		c4.052,0.064,7.811-1.114,8.705-5.427c1.335-6.443-0.002-12.421-5.3-16.976c-5.152-5.891-14.303-7.599-21.549-4.021
		c-7.529,3.718-12.196,12.232-10.762,19.65c0.541,2.8,1.469,5.271,5.213,5.839c-1.082-4.617-1.765-8.926,1.896-13.384
		c1.188,15.742,1.188,15.742,8.415,14.471c-0.505-5.532-1.366-11.23,2.058-16.311c0.259,3.635-0.298,7.221-0.225,10.795
		c0.055,2.719-0.884,6.214,4.288,6.189c5.086-0.023,4.285-3.26,4.325-6.161c0.037-2.695-0.277-5.395-0.437-8.093
		C77.343,172.526,76.774,176.646,76.682,180.69z M157.627,106.936c3.749-1.412,6.304-4.244,7.079-7.946
		c2.548-12.163-10.762-33.038-23.079-36.673c-4.627-3-9.629-3.929-15.651-2.979c2.354,6.345,6.439,11.114,9.684,16.341
		c5.81,9.36,11.258,18.973,11.356,30.286c0.053,5.977,2.409,5.849,6.414,3.916C154.948,109.146,156.234,107.931,157.627,106.936z
		 M117.144,201.987c3.088,2.127,5.563,0.694,7.773-1.481c1.525-1.502,2.409-3.262,0.495-5.186c-1.576-1.729-3.152-3.46-4.722-5.182
		c1.344-2.406,5.588-3.146,4-6.729c-1.214-2.741-4.015-3.957-6.92-4.056c-3.881-0.133-6.223,2.451-7.355,5.737
		c-1.042,3.023-3.001,3.897-5.833,4.359c-8.906,1.451-17.806,2.975-26.656,4.728c-4.215,0.836-7.734,1.229-10.9-2.831
		c-2.066-2.65-5.471-4.685-9.221-2.597c-2.826,1.573-4.447,4.174-4.394,7.561c0.054,3.487,3.267,4.92,5.043,7.297
		c-1.929,2.959-5.019,5.856-0.414,8.818c3.844,2.474,8.73,3.676,10.627-1.198c2.646-6.801,7.831-7.677,13.576-8.753
		c5.757-1.08,11.524-2.198,17.18-3.705C105.934,197.033,112.244,195.313,117.144,201.987z M121.646,152.612
		c2.326,1.493,4.948,2.68,6.899,4.561c2.24,2.159,3.504,1.609,5.49-0.271c6.47-6.127,11.53-13.22,14.933-21.405
		c2.983-7.179,5.234-14.584,4.641-22.75c-2.219,0.31-3.907,0.545-5.597,0.78c-2.646-0.688-3.262-2.536-3.278-5.064
		c-0.02-2.86-0.468-5.717-0.729-8.576c-0.043-1.276,0.199-2.719-1.969-3.029c-0.161,0.921-0.332,1.783-0.459,2.65
		c-3.854,26.325-25.384,45.395-51.192,45.013c-14.352-0.211-26.448-6.091-36.772-15.861c-7.987-9.564-12.834-20.469-13.671-34.14
		c-1.858,4.101-2.335,7.213-2.456,10.397c-0.334,8.859-0.326,8.859-9.038,7.869c-1.191,6.032,1.434,17.122,6.019,25.432
		c2.491,6.695,7.062,11.92,11.715,17.181c3.396,3.838,6.12,4.508,9.078-0.148c14.272-5.995,21.947-4.215,30.965,7.185
		c1.176,3.06,2.583,6.055,2.662,9.425c0.027,1.183,0.448,2.071,1.778,2.151c1.485,0.088,1.937-0.764,2.244-2.128
		c0.718-3.185,1.67-6.316,2.527-9.47C102,153.334,110.771,150.158,121.646,152.612z M48.761,116.682
		c0.473,1.084,0.813,2.251,1.437,3.24c18.238,28.92,61.873,29.556,80.762,1.091c6.993-10.541,10.278-22.05,7.458-34.779
		c-2.759-7.577-7.539-14.006-12.128-20.463c-2.448-3.445-1.96-8.066-5.836-10.954c-17.347-12.923-41.141-13.189-58.528-0.265
		c-1.162,0.863-2.942,1.861-3.086,2.972c-1.02,7.878-6.423,13.411-10.563,19.422C38.914,90.541,41.593,103.53,48.761,116.682z
		 M56.876,59.323c-4.237-0.546-7.134-0.578-10.004,0.187c-15.108,4.025-23.305,14.826-28.575,28.731
		c-5.002,13.197,3.943,19.14,12.975,22.563c1.643,0.622,4.01,0.964,3.887-2.149c-0.512-12.96,5.437-23.612,12.06-34.038
		C50.312,69.748,53.38,64.861,56.876,59.323z"/>
	<path fill-rule="evenodd" clip-rule="evenodd" fill="#FFCC33" d="M48.761,116.682c-7.168-13.152-9.847-26.141-0.485-39.735
		c4.139-6.011,9.542-11.543,10.563-19.422c0.144-1.111,1.924-2.109,3.086-2.972c17.388-12.924,41.182-12.659,58.528,0.265
		c3.876,2.888,3.388,7.508,5.836,10.954c4.589,6.457,9.369,12.886,12.128,20.462c-1.575,2.464-1.1,5.381-1.773,8.023
		c-4.843,18.994-16.253,32.319-35.292,37.629c-18.364,5.12-34.879,0.763-48.755-12.646C51.49,118.17,50.675,116.574,48.761,116.682z
		 M91.112,108.666c-8.728-0.013-13.34,3.223-13.216,9.271c0.125,6.12,6.951,12.854,13.122,12.946
		c6.256,0.093,13.127-6.875,13.104-13.29C104.101,111.576,99.878,108.678,91.112,108.666z M89.787,84.223
		c0.034-8.592-6.918-15.591-15.412-15.515c-8.312,0.074-15.161,7.006-15.191,15.375c-0.032,8.55,7.049,15.68,15.45,15.558
		C82.99,99.518,89.754,92.637,89.787,84.223z M123.116,84.124c-0.042-8.304-7.059-15.379-15.289-15.417
		c-8.511-0.039-15.641,7.018-15.637,15.478c0.003,8.41,7.327,15.623,15.689,15.454C116.18,99.47,123.157,92.364,123.116,84.124z"/>
	<path fill-rule="evenodd" clip-rule="evenodd" fill="#FFCC33" d="M86.225,162.434c-9.019-11.399-16.693-13.18-30.965-7.185
		c-7.708-4.729-14.354-10.754-20.793-17.032c-4.585-8.311-7.21-19.4-6.019-25.432c8.712,0.99,8.704,0.99,9.038-7.869
		c0.121-3.184,0.598-6.296,2.456-10.397c0.836,13.67,5.684,24.575,13.671,34.14c0.235,4.019,3.753,5.653,6.095,7.999
		c23.648,23.681,66.02,15.141,79.128-15.691c2.9-6.823,3.581-14.024,5.169-21.08c0.262,2.859,0.71,5.715,0.729,8.576
		c0.017,2.528,0.633,4.376,3.278,5.064c-1.561,8.57-5.654,15.942-10.573,22.999c-4.374,6.277-10.786,10.475-15.793,16.087
		c-10.875-2.454-19.646,0.722-26.211,9.799C92.364,162.418,89.294,162.426,86.225,162.434z"/>
	<path fill-rule="evenodd" clip-rule="evenodd" fill="#E1DBDB" d="M117.144,201.987c-4.899-6.674-11.21-4.954-17.722-3.218
		c-5.655,1.507-11.423,2.625-17.18,3.705c-5.745,1.076-10.931,1.952-13.576,8.753c-1.896,4.874-6.783,3.672-10.627,1.198
		c-4.605-2.962-1.515-5.859,0.414-8.818c-1.776-2.377-4.989-3.81-5.043-7.297c-0.053-3.387,1.568-5.987,4.394-7.561
		c3.75-2.088,7.155-0.054,9.221,2.597c3.166,4.061,6.686,3.667,10.9,2.831c8.851-1.753,17.75-3.276,26.656-4.728
		c2.832-0.462,4.791-1.336,5.833-4.359c1.133-3.286,3.475-5.87,7.355-5.737c2.905,0.099,5.706,1.314,6.92,4.056
		c1.588,3.583-2.656,4.323-4,6.729c1.569,1.722,3.146,3.452,4.721,5.179C123.286,198.322,120.297,200.257,117.144,201.987z"/>
	<path fill-rule="evenodd" clip-rule="evenodd" fill="#009933" d="M56.876,59.323c-3.496,5.538-6.564,10.424-9.658,15.294
		c-6.623,10.425-12.571,21.078-12.06,34.038c0.123,3.113-2.244,2.771-3.887,2.149c-9.031-3.422-17.977-9.365-12.975-22.563
		c5.27-13.906,13.467-24.707,28.575-28.731C49.742,58.746,52.639,58.777,56.876,59.323z"/>
	<path fill-rule="evenodd" clip-rule="evenodd" fill="#009933" d="M48.761,116.682c1.915-0.107,2.729,1.488,3.836,2.558
		c13.875,13.408,30.391,17.766,48.755,12.646c19.039-5.31,30.449-18.635,35.292-37.629c0.674-2.643,0.198-5.559,1.773-8.023
		c2.82,12.73-0.465,24.24-7.458,34.78c-18.889,28.465-62.523,27.829-80.762-1.091C49.574,118.933,49.233,117.766,48.761,116.682z"/>
	<path fill-rule="evenodd" clip-rule="evenodd" fill="#009933" d="M157.627,106.936c-1.393,0.996-2.679,2.211-4.197,2.944
		c-4.005,1.933-6.361,2.062-6.414-3.916c-0.099-11.313-5.547-20.925-11.356-30.286c-3.244-5.227-7.329-9.996-9.684-16.341
		c6.022-0.95,11.024-0.02,15.651,2.979C154.246,74.576,161.1,88.905,157.627,106.936z"/>
	<path fill-rule="evenodd" clip-rule="evenodd" fill="#FFCC33" d="M76.682,180.69c0.092-4.045,0.661-8.164-2.668-11.804
		c0.16,2.698,0.474,5.397,0.437,8.093c-0.04,2.901,0.761,6.138-4.325,6.161c-5.171,0.024-4.232-3.471-4.288-6.189
		c-0.073-3.574,0.484-7.16,0.225-10.795c-3.424,5.08-2.563,10.778-2.058,16.311c-7.227,1.271-7.227,1.271-8.415-14.471
		c-3.661,4.458-2.978,8.767-1.896,13.384c-3.744-0.567-4.672-3.039-5.213-5.839c-1.435-7.418,3.232-15.933,10.762-19.65
		c7.246-3.578,16.396-1.87,21.549,4.021c0.185,1.161,0.439,2.316,0.544,3.484C81.904,169.726,82.548,176.088,76.682,180.69z"/>
	<path fill-rule="evenodd" clip-rule="evenodd" fill="#FFCC33" d="M96.059,169.46c1.068-7.482,6.383-13.163,13.979-14.943
		c7.368-1.728,14.878,1.022,18.9,6.918c-0.057,2.822-0.113,5.644-0.169,8.465c-0.636-0.372-1.272-0.744-2.378-1.391
		c0.11,4.095,2.455,7.932-0.862,11.611c-2.047-2.18-6.307-1.014-6.681-5.616c-0.231-2.845,0.354-6.129-3.152-8.84
		c2.495,7.65,0.765,13.248-7.003,15.959c-1.949-3.905,0.079-8.473-0.78-12.84c-2.583,3.279-2.367,7.032-2.172,10.738
		c0.1,1.871,0.038,3.278-2.434,2.604C100.891,177.904,98.475,173.682,96.059,169.46z"/>
	<path fill-rule="evenodd" clip-rule="evenodd" fill="#009933" d="M144.005,99.886c-1.588,7.056-2.269,14.256-5.169,21.08
		c-13.108,30.832-55.479,39.372-79.128,15.691c-2.342-2.346-5.86-3.98-6.095-7.999c10.324,9.771,22.42,15.65,36.772,15.861
		c25.809,0.382,47.339-18.688,51.192-45.013c0.127-0.867,0.298-1.729,0.459-2.65C144.204,97.167,143.962,98.61,144.005,99.886z"/>
	<path fill-rule="evenodd" clip-rule="evenodd" fill="#009933" d="M121.646,152.612c5.007-5.612,11.419-9.81,15.793-16.087
		c4.919-7.057,9.013-14.429,10.573-22.999c1.689-0.235,3.378-0.471,5.597-0.78c0.594,8.166-1.657,15.571-4.641,22.75
		c-3.402,8.186-8.463,15.278-14.933,21.405c-1.986,1.881-3.25,2.431-5.49,0.271C126.595,155.292,123.973,154.105,121.646,152.612z"
		/>
	<path fill-rule="evenodd" clip-rule="evenodd" fill="#003300" d="M157.627,106.936c3.473-18.031-3.381-32.359-16-44.62
		c12.317,3.636,25.627,24.511,23.079,36.674C163.931,102.692,161.376,105.523,157.627,106.936z"/>
	<path fill-rule="evenodd" clip-rule="evenodd" fill="#009933" d="M111.839,15.828c-0.053,0.789-0.105,1.577-0.157,2.365
		c-4.148,8.119-6.952,16.773-10.07,25.303c-2.763-0.256-5.524-0.513-8.945-0.832c4.297-10.413,10.257-19.197,17.98-26.839
		C111.043,15.826,111.44,15.827,111.839,15.828z"/>
	<path fill-rule="evenodd" clip-rule="evenodd" fill="#009933" d="M34.466,138.217c6.439,6.278,13.085,12.303,20.793,17.032
		c-2.958,4.656-5.683,3.986-9.078,0.148C41.528,150.137,36.958,144.912,34.466,138.217z"/>
	<path fill-rule="evenodd" clip-rule="evenodd" fill="#009933" d="M76.682,180.69c5.866-4.603,5.222-10.965,4.655-17.295
		c-0.104-1.168-0.359-2.323-0.544-3.484c5.298,4.555,6.635,10.532,5.3,16.976c-0.894,4.313-4.653,5.491-8.705,5.427
		C76.317,182.296,76.066,181.604,76.682,180.69z"/>
	<path fill-rule="evenodd" clip-rule="evenodd" fill="#003300" d="M101.611,43.496c3.118-8.53,5.922-17.185,10.07-25.303
		c-1.024,8.277-3.682,16.131-6.151,24.041C104.74,44.762,103.306,44.289,101.611,43.496z"/>
	<path fill-rule="evenodd" clip-rule="evenodd" fill="#009933" d="M128.769,169.899c0.056-2.821,0.112-5.643,0.169-8.465
		c6.023,5.792,6.294,16.194-0.228,19.915C130.04,177.203,129.941,173.519,128.769,169.899z"/>
	<path fill-rule="evenodd" clip-rule="evenodd" fill="#009933" d="M86.225,162.434c3.07-0.008,6.14-0.016,9.211-0.022
		c-0.856,3.154-1.809,6.286-2.526,9.471c-0.308,1.364-0.759,2.216-2.244,2.128c-1.331-0.08-1.751-0.969-1.778-2.151
		C88.808,168.488,87.4,165.493,86.225,162.434z"/>
	<path fill-rule="evenodd" clip-rule="evenodd" fill="#009933" d="M96.059,169.46c2.416,4.222,4.832,8.444,7.248,12.666
		C96.355,181.482,93.547,176.575,96.059,169.46z"/>
	<path fill-rule="evenodd" clip-rule="evenodd" fill="#FFFFFF" d="M117.144,201.987c3.153-1.73,6.143-3.665,8.268-6.67
		c1.915,1.927,1.031,3.687-0.494,5.188C122.707,202.682,120.231,204.114,117.144,201.987z"/>
	<path fill-rule="evenodd" clip-rule="evenodd" fill="#7B4A25" d="M111.839,15.828c-0.398-0.001-0.796-0.001-1.192-0.002
		C111.046,15.237,111.443,14.732,111.839,15.828z"/>
	<path fill-rule="evenodd" clip-rule="evenodd" fill="#18120F" d="M91.112,108.666c8.766,0.012,12.988,2.91,13.01,8.927
		c0.023,6.415-6.848,13.383-13.104,13.29c-6.171-0.092-12.997-6.826-13.122-12.946C77.772,111.889,82.385,108.653,91.112,108.666z"
		/>
	<path fill-rule="evenodd" clip-rule="evenodd" fill="#18120F" d="M89.787,84.223c-0.033,8.414-6.797,15.295-15.154,15.417
		c-8.401,0.123-15.481-7.007-15.45-15.558c0.03-8.369,6.88-15.301,15.191-15.375C82.869,68.632,89.821,75.631,89.787,84.223z
		 M75.038,70.993c-7.401-0.23-13.398,5.32-13.659,12.64c-0.262,7.355,5.346,13.453,12.619,13.72
		c7.265,0.266,13.389-5.391,13.726-12.681C88.057,77.468,82.259,71.217,75.038,70.993z"/>
	<path fill-rule="evenodd" clip-rule="evenodd" fill="#18120F" d="M123.116,84.124c0.041,8.24-6.937,15.346-15.236,15.515
		c-8.362,0.169-15.687-7.043-15.689-15.454c-0.004-8.46,7.126-15.517,15.637-15.478C116.058,68.745,123.074,75.82,123.116,84.124z
		 M107.564,97.354c7.293,0.042,13.221-5.823,13.261-13.118c0.04-7.333-5.771-13.21-13.098-13.248
		c-7.346-0.037-13.226,5.765-13.26,13.083C94.434,91.388,100.276,97.313,107.564,97.354z"/>
	<path fill-rule="evenodd" clip-rule="evenodd" fill="#FDFDFD" d="M75.038,70.993c7.221,0.224,13.019,6.476,12.686,13.679
		c-0.337,7.29-6.461,12.947-13.726,12.681c-7.272-0.268-12.881-6.365-12.619-13.72C61.64,76.313,67.637,70.763,75.038,70.993z
		 M78.629,90.253c2.765-0.286,4.541-1.698,4.519-4.521c-0.021-2.593-1.609-4.212-4.23-4.292c-2.615-0.081-4.284,1.401-4.474,4.019
		C74.237,88.318,75.943,89.774,78.629,90.253z"/>
	<path fill-rule="evenodd" clip-rule="evenodd" fill="#FDFDFD" d="M107.564,97.354c-7.288-0.041-13.131-5.967-13.097-13.282
		c0.034-7.319,5.914-13.12,13.26-13.083c7.327,0.038,13.138,5.915,13.098,13.248C120.785,91.531,114.857,97.396,107.564,97.354z
		 M107.45,85.814c-0.214-2.566-1.522-4.247-4.161-4.37c-2.854-0.132-4.572,1.572-4.602,4.303c-0.028,2.734,1.678,4.481,4.513,4.405
		C105.813,90.082,107.202,88.44,107.45,85.814z"/>
	<path fill-rule="evenodd" clip-rule="evenodd" fill="#18120F" d="M78.629,90.253c-2.686-0.479-4.392-1.935-4.185-4.793
		c0.189-2.618,1.859-4.1,4.474-4.019c2.621,0.08,4.209,1.699,4.23,4.292C83.17,88.555,81.394,89.967,78.629,90.253z"/>
	<path fill-rule="evenodd" clip-rule="evenodd" fill="#18120F" d="M107.45,85.814c-0.248,2.626-1.638,4.267-4.25,4.338
		c-2.835,0.077-4.541-1.671-4.513-4.405c0.029-2.731,1.747-4.435,4.602-4.303C105.928,81.567,107.236,83.249,107.45,85.814z"/>
</g>
</svg>
